<svg xmlns="http://www.w3.org/2000/svg" viewBox="0 0 400 300">
  <defs>
    <linearGradient id="bg" x1="0%" y1="0%" x2="100%" y2="100%">
      <stop offset="0%" style="stop-color:#1a1a2e"/>
      <stop offset="100%" style="stop-color:#16213e"/>
    </linearGradient>
  </defs>
  <rect width="400" height="300" fill="url(#bg)"/>
  <!-- RG body - aggressive shape with cutaways -->
  <path d="M155 100 Q140 130 145 170 Q150 210 180 230 Q200 240 220 230 Q250 210 255 170 Q260 130 245 100" fill="none" stroke="#9B59B6" stroke-width="3" opacity="0.8"/>
  <!-- Sharp horns -->
  <path d="M155 100 Q145 80 135 65" fill="none" stroke="#9B59B6" stroke-width="2" opacity="0.6"/>
  <path d="M245 100 Q255 80 265 65" fill="none" stroke="#9B59B6" stroke-width="2" opacity="0.6"/>
  <!-- Pickups - HSH config -->
  <rect x="183" y="130" width="34" height="12" rx="3" fill="none" stroke="#9B59B6" stroke-width="1.5" opacity="0.5"/>
  <rect x="188" y="155" width="24" height="8" rx="2" fill="none" stroke="#9B59B6" stroke-width="1" opacity="0.4"/>
  <rect x="183" y="175" width="34" height="12" rx="3" fill="none" stroke="#9B59B6" stroke-width="1.5" opacity="0.5"/>
  <!-- Neck -->
  <rect x="195" y="40" width="10" height="65" rx="3" fill="none" stroke="#9B59B6" stroke-width="2" opacity="0.6"/>
  <!-- Tremolo bridge -->
  <rect x="180" y="200" width="40" height="8" rx="2" fill="none" stroke="#9B59B6" stroke-width="1.5" opacity="0.5"/>
  <text x="200" y="260" text-anchor="middle" fill="#ffffff" font-family="Segoe UI,system-ui,sans-serif" font-size="16" font-weight="600">Ibanez RG550</text>
  <text x="200" y="280" text-anchor="middle" fill="#9B59B6" font-family="Segoe UI,system-ui,sans-serif" font-size="12" opacity="0.8">IBANEZ</text>
</svg>
